<svg width="190" height="48" viewBox="0 0 190 48" fill="none" xmlns="http://www.w3.org/2000/svg">
<rect width="190" height="48" fill="#E4ECF2"/>
<g id="Design System">
<rect x="-557.5" y="-762.5" width="3021" height="4064" fill="#E4ECF2"/>
<rect x="-557.5" y="-762.5" width="3021" height="4064" stroke="#23242A"/>
<g id="Logo">
<rect x="-267" y="-452" width="1200" height="766" rx="8" fill="white"/>
<g id="Logo_2">
<g id="Light">
<rect x="-125.5" y="-124.5" width="441" height="298" rx="7.5" fill="white"/>
<rect x="-125.5" y="-124.5" width="441" height="298" rx="7.5" stroke="#23242A"/>
<g id="Logo / Base / default" clip-path="url(#clip0_1_2)">
<g id="Base" clip-path="url(#clip1_1_2)">
<g id="Space" opacity="0.63">
<path d="M42.2672 8.25614C40.5473 8.25614 39.3486 7.43686 38.6711 5.79829C36.1694 5.79829 33.4246 6.4084 30.4365 7.6286C28.5777 8.39559 27.3269 9.10157 26.6841 9.74653C26.0413 10.3915 25.6938 10.897 25.6417 11.2631C25.607 11.6291 25.7894 11.9429 26.189 12.2044C26.5885 12.4484 27.1444 12.6837 27.8567 12.9104C28.5864 13.137 29.4289 13.3636 30.3844 13.5902C35.3877 14.7581 38.5581 15.5687 39.8958 16.0219C42.5538 16.9109 44.5429 17.8871 45.8633 18.9504C47.1141 20.0137 47.7395 21.4605 47.7395 23.2908C47.7395 24.8074 47.2704 26.0886 46.3323 27.1345C45.4116 28.1804 44.1868 29.1129 42.658 29.9322C41.1293 30.7515 39.4181 31.4836 37.5245 32.1286C35.6483 32.7561 33.6591 33.2965 31.557 33.7497C29.4724 34.203 27.4137 34.5777 25.3811 34.8741C21.4029 35.4319 18.0065 35.7108 15.1922 35.7108C10.0673 35.7108 6.1151 35.092 3.33551 33.8543C2.29316 33.3837 1.44191 32.207 0.78176 30.3244C0.260587 28.773 0 27.5005 0 26.5069C0 25.4959 0.0868622 24.9381 0.260587 24.8335C0.434311 24.7289 0.790446 24.7289 1.32899 24.8335C1.86754 24.9207 2.57112 25.0776 3.43974 25.3042L6.56678 26.1409C11.4137 27.3611 16.5386 27.9712 21.9414 27.9712C25.9197 27.9712 29.2899 27.6138 32.0522 26.8991C33.6852 26.4634 34.5538 25.9753 34.658 25.4349C34.7275 24.9642 33.442 24.3803 30.8013 23.683C29.6026 23.3518 28.2129 23.0032 26.632 22.6371C18.9707 20.772 14.3496 19.5692 12.7687 19.0288C11.1879 18.4884 10.1542 18.0091 9.66777 17.5907C9.19871 17.1724 8.80783 16.7104 8.49513 16.2049C7.92184 15.2113 7.63519 14.27 7.63519 13.381C7.63519 12.4746 7.67862 11.7773 7.76548 11.2892C7.86972 10.8011 8.0087 10.3479 8.18242 9.92956C8.54724 9.07542 9.00761 8.49146 9.56353 8.1777C14.0282 5.66756 20.5863 3.46247 29.2378 1.56243C36.9338 -0.145856 43.2661 -1 48.2346 -1C49.2422 -1 49.9979 -0.825685 50.5017 -0.477054C51.3703 0.167912 51.7525 0.856457 51.6483 1.58858C51.544 2.3207 51.3182 3.00053 50.9708 3.62807C50.6407 4.23817 50.2237 4.79598 49.7199 5.30149C49.2161 5.78958 48.6515 6.22536 48.0261 6.60886C47.4181 6.97492 46.784 7.27997 46.1238 7.52401C44.8035 8.0121 43.518 8.25614 42.2672 8.25614Z" fill="#23242A"/>
<path d="M60.2883 28.0235C60.8616 27.7794 61.6607 27.3959 62.6857 26.873C68.9571 23.6482 72.3969 21.8702 73.0049 21.539L74.0994 20.9376C75.2286 20.2054 75.7498 19.6302 75.6629 19.2118C75.4718 18.3228 74.9941 17.9655 74.2297 18.1398C73.4653 18.2967 72.6662 18.5146 71.8323 18.7935C71.0158 19.0724 70.1472 19.4123 69.2264 19.8132C67.2981 20.6151 65.6043 21.4169 64.145 22.2188C59.0375 25.1647 55.9626 26.9514 54.9202 27.579C54.1732 29.2698 53.5044 30.952 52.9137 32.6254L49.7606 41.5678C48.7704 44.3394 47.7714 46.2133 46.7638 47.1894C46.2253 47.7298 45.6259 48 44.9658 48C43.3328 48 42.0472 47.4248 41.1091 46.2743C40.171 45.1412 39.7019 43.6944 39.7019 41.9338C39.7019 40.1907 39.9278 38.465 40.3795 36.7567C40.8312 35.0658 41.4566 33.3488 42.2557 31.6057C43.8713 28.0845 46.0342 24.7986 48.7443 21.7481C50.3947 17.3031 53.1395 12.9888 56.9788 8.80523C59.3241 6.26023 61.5044 4.46478 63.5196 3.41889C64.5272 2.89594 65.3871 2.63447 66.0994 2.63447C66.8116 2.63447 67.3502 2.80007 67.715 3.13127C68.0798 3.44504 68.2622 3.84596 68.2622 4.33404C68.2622 4.8047 68.1146 5.40608 67.8192 6.13821C67.5239 6.87033 67.1244 7.68961 66.6206 8.59605C66.1167 9.50249 65.5261 10.4699 64.8486 11.4984L62.6857 14.6622C62.512 14.9237 62.4251 15.159 62.4251 15.3682C62.4251 15.6994 62.6249 15.865 63.0245 15.865C63.4761 15.865 64.31 15.5774 65.5261 15.0021L69.6955 13.0672C73.3437 11.4112 76.8355 10.5832 80.1711 10.5832C81.9083 10.5832 83.5413 11.4112 85.0701 13.0672C86.6162 14.7407 87.3893 16.5361 87.3893 18.4536C87.3893 21.4169 86.1819 23.7005 83.7672 25.3042L80.5359 27.4482C79.3719 28.1804 78.1732 28.9038 76.9398 29.6185L73.1873 31.6841C68.9658 33.8805 65.6998 34.9787 63.3893 34.9787C61.0961 34.9787 59.4284 34.691 58.386 34.1158C57.3437 33.5406 56.8225 32.73 56.8225 31.6841C56.8225 30.2721 57.9778 29.0519 60.2883 28.0235Z" fill="#23242A"/>
<path d="M130.296 14.9237C130.852 14.9237 131.13 15.3943 131.13 16.3356C131.13 17.9568 130.001 20.0573 127.743 22.6371L126.257 24.1537C121.758 28.6684 117.519 31.6754 113.541 33.1745C111.074 34.0984 109.302 34.0548 108.225 33.0438C107.339 32.1896 106.635 30.8125 106.114 28.9125L105.489 26.6377L99.9381 30.063L96.7329 31.8933C92.911 33.9851 90.0445 35.0309 88.1335 35.0309C85.684 35.0309 83.6428 34.0809 82.0098 32.1809C80.4462 30.3855 79.6645 28.3024 79.6645 25.9317C79.6645 23.5959 80.5939 21.5128 82.4528 19.6825C85.1107 17.0678 89.3062 14.6709 95.0391 12.492C100.459 10.4525 104.837 9.43276 108.173 9.43276C109.302 9.43276 109.866 9.99057 109.866 11.1062C109.866 11.8732 109.719 12.4484 109.423 12.8319C109.128 13.2154 108.52 13.6076 107.599 14.0085L104.316 15.4205C99.4517 17.46 95.8903 19.5779 93.6319 21.7743C92.9891 22.3844 92.6677 22.9771 92.6677 23.5523C92.6677 24.1275 93.1281 24.4152 94.0489 24.4152C94.9522 24.4152 97.0543 23.439 100.355 21.4867L102.518 20.2054C105.871 18.1834 108.676 17.1724 110.935 17.1724C112.846 17.1724 114.114 18.0178 114.739 19.7086C114.896 20.1619 115.043 20.6238 115.182 21.0944C115.321 21.5477 115.46 21.9573 115.599 22.3234C115.912 23.1775 116.19 23.6046 116.433 23.6046C116.694 23.6046 117.059 23.4826 117.528 23.2385C117.997 22.9771 118.509 22.6546 119.065 22.2711C119.638 21.8702 120.229 21.4344 120.837 20.9637L123.99 18.4274C126.787 16.0916 128.889 14.9237 130.296 14.9237Z" fill="#23242A"/>
<path d="M160.383 17.6953C160.383 18.5146 159.314 20.1009 157.178 22.4541C154.989 24.8422 152.843 26.7858 150.741 28.285C146.676 31.318 142.168 33.3924 137.217 34.508C135.34 34.9438 133.56 35.1617 131.875 35.1617C130.207 35.1617 128.817 35.0135 127.705 34.7172C126.611 34.4383 125.62 34.0635 124.735 33.5928C123.866 33.1048 123.11 32.547 122.467 31.9194C121.825 31.2919 121.286 30.6295 120.852 29.9322C120.001 28.5726 119.575 27.3175 119.575 26.167C119.575 25.0165 119.705 24.0055 119.966 23.1339C120.209 22.2624 120.556 21.4344 121.008 20.6499C122.589 17.7912 125.768 15.2636 130.546 13.0672C134.315 11.3067 137.911 10.1649 141.334 9.64194C142.811 9.41533 143.862 9.30203 144.487 9.30203C145.112 9.30203 145.634 9.37175 146.05 9.51121C146.485 9.63323 146.858 9.80754 147.171 10.0342C147.866 10.5397 148.213 11.2282 148.213 12.0998C148.213 12.9714 147.988 13.7994 147.536 14.5838C147.084 15.3508 146.511 15.9957 145.816 16.5187C144.461 17.5297 142.95 18.0352 141.282 18.0352C139.006 18.0352 137.13 17.7389 135.653 17.1462C134.628 17.5123 133.759 18.1834 133.047 19.1596C132.457 19.9614 132.161 20.6848 132.161 21.3298C132.161 21.9573 132.3 22.5761 132.578 23.1862C132.873 23.7789 133.282 24.3106 133.803 24.7812C134.95 25.7922 136.331 26.2978 137.946 26.2978C141.699 26.2978 146.068 24.3018 151.054 20.31L153.425 18.4536C155.927 16.5361 157.707 15.5774 158.767 15.5774C159.844 15.5774 160.383 16.2834 160.383 17.6953Z" fill="#23242A"/>
<path d="M188.749 15.342C189.583 15.342 190 15.8127 190 16.754C190 17.3815 189.783 18.1747 189.349 19.1334C188.932 20.0747 188.324 20.9637 187.524 21.8004C186.725 22.6197 185.805 23.4739 184.762 24.3629C183.737 25.2519 182.53 26.1845 181.14 27.1606C179.768 28.1368 178.248 29.1042 176.58 30.063C174.912 31.0217 173.14 31.8846 171.264 32.6515C167.112 34.3598 163.09 35.214 159.199 35.214C156.228 35.214 153.631 34.4383 151.407 32.8869C149.079 31.2657 147.915 29.296 147.915 26.9776C147.915 23.3344 149.87 19.8742 153.778 16.5971C157.149 13.7732 161.118 11.5856 165.687 10.0342C168.467 9.09285 170.821 8.6222 172.749 8.6222C174.313 8.6222 175.633 9.00569 176.71 9.77268C177.857 10.6094 178.43 11.7337 178.43 13.1457C178.43 15.3595 176.684 17.8086 173.192 20.4931C172.636 20.9289 172.132 21.2949 171.681 21.5912L170.743 22.2188C169.005 23.439 166.365 24.8074 162.821 26.3239C163.915 26.8991 164.932 27.1868 165.87 27.1868C166.825 27.1868 167.676 27.0735 168.423 26.8469C169.188 26.6202 170.048 26.2978 171.003 25.8794C171.959 25.461 172.975 24.9642 174.052 24.389C175.147 23.7963 176.25 23.1514 177.362 22.4541C179.846 20.9027 182 19.3164 183.824 17.6953C184.78 16.8063 185.996 16.1003 187.472 15.5774C187.959 15.4205 188.384 15.342 188.749 15.342ZM160.006 22.6894L161.44 21.9573C161.909 21.7133 162.326 21.4867 162.691 21.2775C166.2 19.2554 168.198 18.0091 168.684 17.5384C169.17 17.0678 169.414 16.7453 169.414 16.571C169.414 16.3792 169.362 16.1613 169.257 15.9173C169.153 15.6732 169.014 15.4554 168.84 15.2636C168.423 14.7755 167.98 14.5315 167.511 14.5315C167.042 14.5315 166.521 14.6186 165.948 14.793C165.392 14.9673 164.827 15.2113 164.254 15.5251C163.681 15.8214 163.125 16.1875 162.586 16.6233C162.065 17.0416 161.605 17.4948 161.205 17.9829C160.284 19.0811 159.824 20.0311 159.824 20.833C159.824 21.6348 159.885 22.2536 160.006 22.6894Z" fill="#23242A"/>
</g>
</g>
</g>
</g>
</g>
</g>
</g>
<defs>
<clipPath id="clip0_1_2">
<rect width="190" height="48" fill="white"/>
</clipPath>
<clipPath id="clip1_1_2">
<rect width="190" height="48" fill="white"/>
</clipPath>
</defs>
</svg>
